<?xml version="1.0" ?><svg height="512" id="svg4562" version="1.1" width="512" xmlns="http://www.w3.org/2000/svg" xmlns:cc="http://creativecommons.org/ns#" xmlns:dc="http://purl.org/dc/elements/1.1/" xmlns:inkscape="http://www.inkscape.org/namespaces/inkscape" xmlns:rdf="http://www.w3.org/1999/02/22-rdf-syntax-ns#" xmlns:sodipodi="http://sodipodi.sourceforge.net/DTD/sodipodi-0.dtd" xmlns:svg="http://www.w3.org/2000/svg"><defs id="defs4564"/><g id="layer1" transform="translate(0,-540.36218)"><g id="g4792" transform="matrix(1.7355932,0,0,1.7355932,-381.83051,137.07595)"><path d="m 507.5,367.36218 c 0,73.17773 -59.32227,132.5 -132.5,132.5 -73.17773,0 -132.5,-59.32227 -132.5,-132.5 0,-73.17773 59.32227,-132.5 132.5,-132.5 73.17773,0 132.5,59.32227 132.5,132.5 z" id="path4794" style="fill:none;stroke:#4d4d4d;stroke-width:25;stroke-linecap:round;stroke-linejoin:round;stroke-miterlimit:4;stroke-opacity:1;stroke-dasharray:none;stroke-dashoffset:0" transform="matrix(1.0172414,0,0,1.0172414,-13.965517,6.1661693)"/><path d="m 376.09435,300.59764 -37.1887,0 L 357.5,268.39127 z" id="path4796" style="fill:#4d4d4d;fill-opacity:1;stroke:none" transform="matrix(-0.43024204,0.79450282,-0.66901248,0.0380943,806.3562,-6.3379223)"/><path d="m 376.09435,300.59764 -37.1887,0 L 357.5,268.39127 z" id="path4798" style="fill:#4d4d4d;fill-opacity:1;stroke:none" transform="matrix(-0.79450282,-0.43024204,-0.0380943,-0.66901248,753.70011,818.71836)"/><path d="m 376.09435,300.59764 -37.1887,0 L 357.5,268.39127 z" id="path4800" style="fill:#4d4d4d;fill-opacity:1;stroke:none" transform="matrix(0.43024204,-0.79450282,0.66901248,-0.0380943,-71.356183,766.06227)"/><path d="m 376.09435,300.59764 -37.1887,0 L 357.5,268.39127 z" id="path4802" style="fill:#4d4d4d;fill-opacity:1;stroke:none" transform="matrix(0.79450282,0.43024204,0.0380943,0.66901248,-18.700092,-58.994023)"/><g id="g4804" style="font-size:40px;font-style:normal;font-variant:normal;font-weight:800;font-stretch:normal;text-align:start;line-height:125%;letter-spacing:0px;word-spacing:0px;writing-mode:lr-tb;text-anchor:start;fill:#4d4d4d;fill-opacity:1;stroke:none;font-family:Raleway;-inkscape-font-specification:Raleway Ultra-Bold"><path d="m 374.6799,291.56201 5.27993,0 0,-28.39963 -6.55991,0 0,16.67978 -13.23983,-16.67978 -5.11993,0 0,28.39963 6.55991,0 0,-16.23979 z" id="path4806"/></g><g id="g4808" style="font-size:40px;font-style:normal;font-variant:normal;font-weight:800;font-stretch:normal;text-align:start;line-height:125%;letter-spacing:0px;word-spacing:0px;writing-mode:lr-tb;text-anchor:start;fill:#4d4d4d;fill-opacity:1;stroke:none;font-family:Raleway;-inkscape-font-specification:Raleway Ultra-Bold" transform="matrix(0,1,-1,0,0,0)"><path d="m 376.44223,-461.5601 0,-6.03992 11.19986,0 0,-5.31993 -11.19986,0 0,-5.51993 13.03984,0 0,-5.75993 -19.59975,0 0,28.39964 19.95974,0 0,-5.75993 z" id="path4810"/></g><g id="g4812" style="font-size:40px;font-style:normal;font-variant:normal;font-weight:800;font-stretch:normal;text-align:start;line-height:125%;letter-spacing:0px;word-spacing:0px;writing-mode:lr-tb;text-anchor:start;fill:#4d4d4d;fill-opacity:1;stroke:none;font-family:Raleway;-inkscape-font-specification:Raleway Ultra-Bold" transform="matrix(0,-1,1,0,0,0)"><path d="m -384.10215,264.04005 -2.79996,7.63991 -7.19991,-20.87973 -7.07991,0 11.31985,28.39963 5.47993,0 4.51994,-11.11986 4.47995,11.11986 5.51993,0 11.31985,-28.39963 -7.11991,0 -7.15991,20.87973 -2.87996,-7.63991 4.75994,-13.19983 -6.03992,0 -2.91996,9.07989 -2.83997,-9.07989 -6.07992,0 z" id="path4814"/></g><g id="g4816" style="font-size:40px;font-style:normal;font-variant:normal;font-weight:800;font-stretch:normal;text-align:start;line-height:125%;letter-spacing:0px;word-spacing:0px;writing-mode:lr-tb;text-anchor:start;fill:#4d4d4d;fill-opacity:1;stroke:none;font-family:Raleway;-inkscape-font-specification:Raleway Ultra-Bold" transform="scale(-1,-1)"><path d="m -356.98013,-493.68202 c -1.25918,-0.77747 -2.77082,-1.48246 -4.53495,-2.11498 -1.76416,-0.63246 -3.6658,-0.96746 -5.70492,-1.00498 -2.92164,0.01 -5.37827,0.80001 -7.36991,2.36996 -1.99164,1.57001 -3.02829,3.85998 -3.10996,6.86992 -0.008,2.09915 0.61749,3.7408 1.87498,4.92493 1.25748,1.18417 3.19245,2.15582 5.80492,2.91497 1.99997,0.5525 3.62994,1.07749 4.88994,1.57497 1.25997,0.49751 1.90996,1.2525 1.94998,2.26498 0.002,0.68333 -0.28252,1.20665 -0.85499,1.56998 -0.57251,0.36333 -1.4475,0.54666 -2.62497,0.54999 -2.26498,-0.10333 -4.30495,-0.58665 -6.11992,-1.44998 -1.81498,-0.86332 -2.89497,-1.48664 -3.23996,-1.86998 l -2.87996,5.71993 c 1.71497,1.10915 3.63495,1.97081 5.75992,2.58496 2.12497,0.61416 4.24494,0.92582 6.35992,0.93499 2.84245,0.0408 5.30742,-0.60082 7.39491,-1.92497 2.08745,-1.32415 3.18243,-3.57579 3.28495,-6.75492 -0.03,-2.57578 -0.83001,-4.48409 -2.39996,-5.72492 -1.57,-1.2408 -3.72997,-2.19912 -6.47992,-2.87497 -1.90916,-0.47997 -3.3708,-0.94997 -4.38495,-1.40998 -1.01416,-0.45997 -1.52582,-1.14996 -1.53497,-2.06997 0.005,-0.7808 0.30498,-1.36913 0.89998,-1.76498 0.59499,-0.3958 1.45497,-0.59413 2.57997,-0.59499 1.77913,0.0859 3.42077,0.48418 4.92494,1.19498 1.50413,0.71085 2.39578,1.21918 2.67496,1.52499 z" id="path4818"/></g><g id="g4820" transform="matrix(-1,0,0,-1,735,759.75)"><g id="g4822" transform="matrix(0.8660254,0.5,-0.5,0.8660254,239.17317,-132.8564)"><path d="m 367.5,275.375 c 0,0 -20.84375,94.68655 -20.84375,104.15625 0,11.54166 9.30209,20.84375 20.84375,20.84375 11.54167,0 20.84375,-9.30209 20.84375,-20.84375 C 388.34375,370.06155 367.5,275.375 367.5,275.375 z m 0,91.21875 c 7.32195,0 13.25,5.9593 13.25,13.28125 0,7.32195 -5.92805,13.25 -13.25,13.25 -7.32195,0 -13.25,-5.92805 -13.25,-13.25 0,-7.32195 5.92805,-13.28125 13.25,-13.28125 z" id="path4824" style="fill:#4d4d4d;fill-opacity:1;stroke:none"/><path d="m 366.4375,359.375 c -11.0381,0.55592 -19.78125,9.63152 -19.78125,20.8125 0,9.4697 20.84375,104.1875 20.84375,104.1875 0,0 20.84375,-94.7178 20.84375,-104.1875 0,-11.54166 -9.30209,-20.8125 -20.84375,-20.8125 -0.36068,0 -0.70643,-0.0179 -1.0625,0 z m 1.0625,7 c 7.78474,0 13.84375,6.02776 13.84375,13.8125 0,-0.0996 -0.26049,2.67517 -0.8125,6.0625 -0.55201,3.38733 -1.37422,7.83827 -2.34375,12.90625 -1.93905,10.13596 -4.52541,22.84285 -7.125,35.25 -1.78109,8.50064 -1.98988,9.27045 -3.5625,16.59375 -1.57262,-7.3233 -1.78141,-8.09311 -3.5625,-16.59375 -2.59959,-12.40715 -5.18595,-25.11404 -7.125,-35.25 -0.96953,-5.06798 -1.79174,-9.51892 -2.34375,-12.90625 -0.55201,-3.38733 -0.8125,-6.16212 -0.8125,-6.0625 0,-7.78474 6.059,-13.8125 13.84375,-13.8125 z" id="path4826" style="fill:#4d4d4d;fill-opacity:1;stroke:none"/></g></g></g></g></svg>