<?xml version="1.0" ?><svg height="512" id="svg5769" version="1.1" width="512" xmlns="http://www.w3.org/2000/svg" xmlns:cc="http://creativecommons.org/ns#" xmlns:dc="http://purl.org/dc/elements/1.1/" xmlns:inkscape="http://www.inkscape.org/namespaces/inkscape" xmlns:rdf="http://www.w3.org/1999/02/22-rdf-syntax-ns#" xmlns:sodipodi="http://sodipodi.sourceforge.net/DTD/sodipodi-0.dtd" xmlns:svg="http://www.w3.org/2000/svg"><defs id="defs5771"/><g id="layer1" transform="translate(0,-540.36218)"><path d="m 255.99963,540.36218 c -69.39902,0 -125.12412,56.17397 -125.12412,125.57367 0,69.39895 55.72509,125.12411 125.12412,125.12411 69.39969,0 125.12478,-55.72516 125.12478,-125.12411 0,-69.3997 -55.72509,-125.57367 -125.12478,-125.57367 z M 163.67274,795.30707 C 70.569825,831.73124 11.774195,921.60849 3.954015,1023.9906 c 147.179545,37.8288 356.911695,37.8288 504.091975,0 -7.82018,-102.38211 -66.61656,-192.25936 -159.7188,-228.68353 -26.68213,17.10646 -58.37405,27.18126 -92.32756,27.18126 -33.95284,0 -65.64476,-10.0748 -92.32689,-27.18126 z" id="path4900" style="fill:#85D6D6;fill-opacity:1;stroke:none"/></g></svg>