<?xml version="1.0" ?><svg height="512" id="svg5769" version="1.1" width="512" xmlns="http://www.w3.org/2000/svg" xmlns:cc="http://creativecommons.org/ns#" xmlns:dc="http://purl.org/dc/elements/1.1/" xmlns:inkscape="http://www.inkscape.org/namespaces/inkscape" xmlns:rdf="http://www.w3.org/1999/02/22-rdf-syntax-ns#" xmlns:sodipodi="http://sodipodi.sourceforge.net/DTD/sodipodi-0.dtd" xmlns:svg="http://www.w3.org/2000/svg"><defs id="defs5771"/><g id="layer1" transform="translate(0,-540.36218)"><path d="M 255.92946,553.69842 1.5e-6,780.41511 26.813712,810.68632 255.92946,607.74917 485.11585,810.68632 512,780.41511 255.92946,553.69842 z m 115.15763,33.37602 0.56476,38.31528 64.07048,57.86113 0,-96.17641 -64.63503,0 z M 255.92946,641.68967 76.207312,800.8076 l 0,89.96691 0,137.59649 0,10.6549 10.584337,0 71.761881,0 38.95033,0 0,-111.70011 116.92177,0 0,111.70011 30.90619,0 79.73551,0 10.65479,0 0,-10.6549 0,-137.59649 0,-89.89633 -179.79266,-159.18851 z" id="rect2391" style="fill:#545859;fill-opacity:1"/></g></svg>