<?xml version="1.0" ?><svg height="512" id="Layer_1" version="1.1" viewBox="0 0 512.00003 512" width="512" xml:space="preserve" xmlns="http://www.w3.org/2000/svg" xmlns:cc="http://creativecommons.org/ns#" xmlns:dc="http://purl.org/dc/elements/1.1/" xmlns:rdf="http://www.w3.org/1999/02/22-rdf-syntax-ns#" xmlns:svg="http://www.w3.org/2000/svg"><defs id="defs7"/><g id="g2984" transform="matrix(0.93749918,0,0,0.93749918,16.000191,16.000212)"><g id="g9033" transform="translate(5417.4261,635.48564)"><path d="m -5410.3096,-426.01922 c -3.6802,0.16075 -6.9409,3.48519 -7.0288,7.16783 -1.4315,55.1052 14.7295,108.19834 40.5709,152.91466 0.7818,1.51441 1.5974,2.99836 2.3893,4.45693 0,0.0304 0.034,0.0609 0.05,0.0914 1.9154,3.44135 4.2962,7.09066 7.0306,10.84371 0.018,0.0355 0.068,0.0575 0.084,0.0913 22.9971,35.00951 51.8995,63.85326 82.2927,83.07378 1.0051,0.90696 2.4484,2.24489 3.2166,2.94067 1.0154,0.91965 1.7496,1.63895 2.2522,2.11358 -0.05,-0.0727 -0.203,-0.46058 -0.2758,-0.5973 0.1913,0.30627 0.4078,0.59832 0.643,0.87312 -0.05,-0.0677 -0.1693,-0.1015 -0.2758,-0.18394 0.2487,0.23588 0.45,0.40391 0.4586,0.41354 1.3705,1.60072 3.4535,2.5652 5.5602,2.57316 l 4.2725,0 210.9011,0 4.2742,0 c 2.1049,0 4.1895,-0.97244 5.5585,-2.57316 0,-0.017 0.2114,-0.17766 0.4602,-0.41354 -0.1182,0.0829 -0.22,0.11671 -0.2758,0.18394 0.2352,-0.2748 0.4501,-0.56685 0.6429,-0.87312 -0.068,0.13706 -0.2165,0.52437 -0.2758,0.5973 0.5026,-0.47463 1.237,-1.19393 2.2522,-2.11358 0.7666,-0.69578 2.2115,-2.03371 3.2167,-2.94067 30.29,-19.15437 59.1044,-47.85902 82.0625,-82.70609 0,-0.017 0,-0.0356 0,-0.0457 2.8699,-3.90989 5.3606,-7.68138 7.3522,-11.25708 0,-0.0304 0.034,-0.0609 0.05,-0.0914 0.7665,-1.41221 1.5397,-2.85471 2.2961,-4.3192 25.8923,-44.74729 42.0973,-97.88629 40.6641,-153.0524 -0.1018,-3.78756 -3.5618,-7.16868 -7.3504,-7.16782 l -3.3097,0 -486.1284,0 -3.308,0 c -0.1019,0 -0.215,0 -0.3216,0 z" id="path9-37" style="font-size:medium;font-style:normal;font-variant:normal;font-weight:normal;font-stretch:normal;text-indent:0;text-align:start;text-decoration:none;line-height:normal;letter-spacing:normal;word-spacing:normal;text-transform:none;direction:ltr;block-progression:tb;writing-mode:lr-tb;text-anchor:start;baseline-shift:baseline;color:#000000;fill:#85D6D6;fill-opacity:1;stroke:none;stroke-width:10;marker:none;visibility:visible;display:inline;overflow:visible;enable-background:accumulate;font-family:Sans;-inkscape-font-specification:Sans"/><path d="m -4967.0449,-599.71575 c -2.5925,0.0689 -5.2318,0.54009 -7.8214,1.45422 -17.4399,6.15236 -23.9935,26.66807 -13.0879,40.95393 l 3.0263,4.12684 c -14.9844,14.27035 -40.2113,39.03318 -57.5791,56.36085 -14.1128,-5.07936 -40.0214,-5.71223 -63.3175,-1.29707 -39.9679,7.57514 -88.9017,29.29604 -123.0191,54.35626 74.0255,0.0176 148.0373,0.27695 222.0631,0.11823 -0.5073,-8.69777 -2.1342,-16.67739 -5.5024,-24.01432 14.4227,-14.33278 37.907,-37.26761 49.9936,-48.89312 l 5.1881,4.24475 c 9.7247,7.70047 22.1043,9.35825 32.7002,4.40189 11.7177,-5.48303 18.0388,-14.73026 18.9048,-27.51218 0.9771,-14.47399 -8.326,-27.42461 -21.3416,-31.52116 -3.7123,-1.32606 -8.4014,-1.62854 -12.7736,-1.61143 l -0.1182,-5.50245 c -0.3449,-14.82734 -13.3165,-26.03719 -27.3157,-25.66499 z" id="path8866-1" style="fill:#85D6D6;fill-opacity:1"/></g></g></svg>